<svg width="80" height="80" viewBox="0 0 80 80" fill="none" xmlns="http://www.w3.org/2000/svg">
<rect width="80" height="80" rx="16" fill="#FCF8F0"/>
<rect width="48" height="48" transform="translate(16 16)" fill="#FCF8F0"/>
<path d="M53.9999 63.6001H25.9999C24.0117 63.6001 22.3999 61.9883 22.3999 60.0001V20.0001C22.3999 18.0119 24.0117 16.4001 25.9999 16.4001H47.2326C48.2457 16.4001 49.212 16.8271 49.8942 17.5761L56.6616 25.007C57.2653 25.6699 57.5999 26.5343 57.5999 27.4309V60.0001C57.5999 61.9883 55.9882 63.6001 53.9999 63.6001Z" fill="#FDB642" stroke="#383838" stroke-width="0.8"/>
<rect x="20" y="36.0001" width="40" height="16" rx="0.8" fill="#383838"/>
<path d="M57.6327 30.0001H46C44.8954 30.0001 44 29.1047 44 28.0001V16.3116L49 16.9999L57 26.0001L57.6327 30.0001Z" fill="#383838"/>
<path d="M30 48V40H32.974C33.5833 40 34.0944 40.1146 34.5075 40.3437C34.9231 40.5729 35.2368 40.888 35.4485 41.2891C35.6627 41.6875 35.7699 42.1406 35.7699 42.6484C35.7699 43.1615 35.6627 43.6172 35.4485 44.0156C35.2342 44.4141 34.918 44.7279 34.4997 44.957C34.0815 45.1836 33.5665 45.2969 32.9546 45.2969H30.9836V44.1055H32.761C33.1173 44.1055 33.409 44.043 33.6362 43.918C33.8634 43.793 34.0312 43.6211 34.1396 43.4023C34.2506 43.1836 34.3061 42.9323 34.3061 42.6484C34.3061 42.3646 34.2506 42.1146 34.1396 41.8984C34.0312 41.6823 33.8621 41.5143 33.6323 41.3945C33.4051 41.2721 33.1121 41.2109 32.7533 41.2109H31.4367V48H30Z" fill="#F9DBAA"/>
<path d="M39.7052 48H37.0178V40H39.7594C40.5468 40 41.2232 40.1602 41.7886 40.4805C42.3565 40.7982 42.7928 41.2552 43.0974 41.8516C43.4021 42.4479 43.5544 43.1615 43.5544 43.9922C43.5544 44.8255 43.4008 45.5417 43.0936 46.1406C42.7889 46.7396 42.3488 47.1992 41.7731 47.5195C41.2 47.8398 40.5107 48 39.7052 48ZM38.4544 46.7461H39.6355C40.188 46.7461 40.6488 46.6445 41.018 46.4414C41.3871 46.2357 41.6646 45.9297 41.8505 45.5234C42.0364 45.1146 42.1293 44.6042 42.1293 43.9922C42.1293 43.3802 42.0364 42.8724 41.8505 42.4687C41.6646 42.0625 41.3897 41.7591 41.0257 41.5586C40.6643 41.3555 40.2151 41.2539 39.6781 41.2539H38.4544V46.7461Z" fill="#F9DBAA"/>
<path d="M44.9194 48V40H50V41.2148H46.3561V43.3867H49.6515V44.6016H46.3561V48H44.9194Z" fill="#F9DBAA"/>
<rect x="26" y="22.0001" width="14" height="4" rx="0.8" fill="#DEA03A"/>
</svg>
